<svg width="63" height="54" viewBox="0 0 63 54" fill="none" xmlns="http://www.w3.org/2000/svg">
<path d="M2 8H10L15.36 34.78C15.5429 35.7008 16.0438 36.5279 16.7751 37.1166C17.5064 37.7053 18.4214 38.018 19.36 38H38.8C39.7386 38.018 40.6536 37.7053 41.3849 37.1166C42.1162 36.5279 42.6171 35.7008 42.8 34.78L46 18H12M20 48C20 49.1046 19.1046 50 18 50C16.8954 50 16 49.1046 16 48C16 46.8954 16.8954 46 18 46C19.1046 46 20 46.8954 20 48ZM42 48C42 49.1046 41.1046 50 40 50C38.8954 50 38 49.1046 38 48C38 46.8954 38.8954 46 40 46C41.1046 46 42 46.8954 42 48Z" stroke="#1E1E1E" stroke-width="4" stroke-linecap="round" stroke-linejoin="round"/>
<rect x="33" width="30" height="30" rx="15" fill="#E94848"/>
<path d="M40.8333 15H57.1666" stroke="white" stroke-width="4" stroke-linecap="round" stroke-linejoin="round"/>
</svg>
