<svg width="146" height="99" viewBox="0 0 146 99" fill="none" xmlns="http://www.w3.org/2000/svg">
<path d="M65.296 15.136H69.552V20.576H65.296V15.136ZM75.728 15.136H79.952V20.576H75.728V15.136ZM59.28 19.264H86.064V22.624H59.28V19.264ZM72.624 24.128C79.024 24.128 82.896 26.048 82.896 29.472C82.896 32.928 79.024 34.848 72.624 34.848C66.192 34.848 62.32 32.928 62.32 29.472C62.32 26.048 66.192 24.128 72.624 24.128ZM72.624 27.328C68.656 27.328 66.64 28 66.64 29.472C66.64 30.976 68.656 31.648 72.624 31.648C76.592 31.648 78.608 30.976 78.608 29.472C78.608 28 76.592 27.328 72.624 27.328ZM72.688 5.632C79.216 5.632 83.408 7.808 83.408 11.36C83.408 14.88 79.216 16.992 72.688 16.992C66.128 16.992 61.968 14.88 61.968 11.36C61.968 7.808 66.128 5.632 72.688 5.632ZM72.688 8.896C68.624 8.896 66.352 9.696 66.352 11.36C66.352 12.992 68.624 13.792 72.688 13.792C76.752 13.792 79.024 12.992 79.024 11.36C79.024 9.696 76.752 8.896 72.688 8.896ZM109.134 5.216H113.422V34.848H109.134V5.216ZM100.398 8.288H104.622C104.622 17.344 101.55 24.768 91.0215 29.856L88.8135 26.464C97.3255 22.368 100.398 16.992 100.398 9.056V8.288ZM90.3815 8.288H102.414V11.648H90.3815V8.288ZM59.312 62.968H86.128V66.424H59.312V62.968ZM70.544 56.408H74.8V63.768H70.544V56.408ZM62.096 42.392H83.184V56.952H62.096V42.392ZM79.024 45.784H66.288V53.592H79.024V45.784ZM96.6535 42.264C101.166 42.264 104.43 46.36 104.43 52.824C104.43 59.352 101.166 63.448 96.6535 63.448C92.1415 63.448 88.8775 59.352 88.8775 52.824C88.8775 46.36 92.1415 42.264 96.6535 42.264ZM96.6535 46.136C94.4455 46.136 92.9735 48.472 92.9735 52.824C92.9735 57.24 94.4455 59.608 96.6535 59.608C98.8615 59.608 100.366 57.24 100.366 52.824C100.366 48.472 98.8615 46.136 96.6535 46.136ZM107.662 40.216H111.95V69.848H107.662V40.216ZM110.99 51.384H116.238V54.904H110.99V51.384Z" fill="#DD017C"/>
<path d="M142.348 41C152.655 90.075 37.6472 120.808 23 41" stroke="#DD017C" stroke-width="5"/>
<path d="M110 86L108 94L60.5 95.5L57 86" stroke="#DD017C" stroke-width="5"/>
<line x1="111" y1="53" x2="144" y2="53" stroke="#DD017C" stroke-width="4"/>
<path d="M25.3482 20.2587C26.9076 25.4383 27.1487 30.3765 26.3701 34.1344C25.5734 37.9797 23.8541 40.0858 21.9434 40.6611C20.0328 41.2363 17.4365 40.4295 14.6493 37.6632C11.9254 34.9597 9.40005 30.7093 7.84066 25.5297C5.43911 17.5529 7.73386 13.2161 10.4575 8.06886C10.8226 7.3789 11.1954 6.67437 11.5656 5.94456C11.9361 6.1354 12.2994 6.32071 12.6558 6.50255C15.064 7.73113 17.1611 8.80095 19.0986 10.3455C21.6301 12.3636 23.8211 15.1863 25.3482 20.2587Z" stroke="#DD017C" stroke-width="4"/>
<path d="M43.23 39.3879C41.3222 44.4494 38.5137 48.5184 35.6124 51.0305C32.6436 53.6009 29.9984 54.2294 28.1313 53.5256C26.2642 52.8218 24.692 50.6037 24.1586 46.7132C23.6372 42.911 24.2134 38.0006 26.1212 32.939C29.0595 25.1439 33.5168 23.0932 38.8071 20.6591C39.5163 20.3329 40.2404 19.9997 40.9778 19.6449C41.1562 20.0216 41.3322 20.3895 41.5048 20.7504C42.6714 23.1893 43.6872 25.313 44.288 27.7169C45.0729 30.8578 45.0984 34.431 43.23 39.3879Z" stroke="#DD017C" stroke-width="4"/>
</svg>
